<svg width="2824" height="134" viewBox="0 0 2824 134" fill="none" xmlns="http://www.w3.org/2000/svg">
<ellipse cx="32" cy="46.5" rx="32" ry="46.5" fill="#D9D9D9"/>
<rect y="41" width="744" height="93" fill="#D9D9D9"/>
<ellipse cx="72" cy="46.5" rx="32" ry="46.5" fill="#D9D9D9"/>
<ellipse cx="112" cy="46.5" rx="32" ry="46.5" fill="#D9D9D9"/>
<ellipse cx="152" cy="46.5" rx="32" ry="46.5" fill="#D9D9D9"/>
<ellipse cx="192" cy="46.5" rx="32" ry="46.5" fill="#D9D9D9"/>
<ellipse cx="232" cy="46.5" rx="32" ry="46.5" fill="#D9D9D9"/>
<ellipse cx="272" cy="46.5" rx="32" ry="46.5" fill="#D9D9D9"/>
<ellipse cx="312" cy="46.5" rx="32" ry="46.5" fill="#D9D9D9"/>
<ellipse cx="352" cy="46.5" rx="32" ry="46.5" fill="#D9D9D9"/>
<ellipse cx="392" cy="46.5" rx="32" ry="46.5" fill="#D9D9D9"/>
<ellipse cx="432" cy="46.5" rx="32" ry="46.5" fill="#D9D9D9"/>
<ellipse cx="472" cy="46.5" rx="32" ry="46.5" fill="#D9D9D9"/>
<ellipse cx="512" cy="46.5" rx="32" ry="46.5" fill="#D9D9D9"/>
<ellipse cx="552" cy="46.5" rx="32" ry="46.5" fill="#D9D9D9"/>
<ellipse cx="592" cy="46.5" rx="32" ry="46.5" fill="#D9D9D9"/>
<ellipse cx="632" cy="46.5" rx="32" ry="46.5" fill="#D9D9D9"/>
<rect y="41" width="744" height="93" fill="#D9D9D9"/>
<ellipse cx="72" cy="46.5" rx="32" ry="46.5" fill="#D9D9D9"/>
<ellipse cx="112" cy="46.5" rx="32" ry="46.5" fill="#D9D9D9"/>
<ellipse cx="152" cy="46.5" rx="32" ry="46.5" fill="#D9D9D9"/>
<ellipse cx="192" cy="46.5" rx="32" ry="46.5" fill="#D9D9D9"/>
<ellipse cx="232" cy="46.5" rx="32" ry="46.5" fill="#D9D9D9"/>
<ellipse cx="272" cy="46.5" rx="32" ry="46.5" fill="#D9D9D9"/>
<ellipse cx="312" cy="46.5" rx="32" ry="46.5" fill="#D9D9D9"/>
<ellipse cx="352" cy="46.5" rx="32" ry="46.5" fill="#D9D9D9"/>
<ellipse cx="392" cy="46.5" rx="32" ry="46.5" fill="#D9D9D9"/>
<ellipse cx="432" cy="46.5" rx="32" ry="46.5" fill="#D9D9D9"/>
<ellipse cx="472" cy="46.5" rx="32" ry="46.5" fill="#D9D9D9"/>
<ellipse cx="512" cy="46.5" rx="32" ry="46.5" fill="#D9D9D9"/>
<ellipse cx="552" cy="46.5" rx="32" ry="46.5" fill="#D9D9D9"/>
<ellipse cx="592" cy="46.5" rx="32" ry="46.5" fill="#D9D9D9"/>
<ellipse cx="632" cy="46.5" rx="32" ry="46.5" fill="#D9D9D9"/>
<rect x="680" y="41" width="744" height="93" fill="#D9D9D9"/>
<ellipse cx="752" cy="46.5" rx="32" ry="46.5" fill="#D9D9D9"/>
<ellipse cx="792" cy="46.5" rx="32" ry="46.5" fill="#D9D9D9"/>
<ellipse cx="832" cy="46.5" rx="32" ry="46.5" fill="#D9D9D9"/>
<ellipse cx="872" cy="46.5" rx="32" ry="46.5" fill="#D9D9D9"/>
<ellipse cx="912" cy="46.5" rx="32" ry="46.5" fill="#D9D9D9"/>
<ellipse cx="952" cy="46.5" rx="32" ry="46.5" fill="#D9D9D9"/>
<ellipse cx="992" cy="46.5" rx="32" ry="46.5" fill="#D9D9D9"/>
<ellipse cx="1032" cy="46.5" rx="32" ry="46.5" fill="#D9D9D9"/>
<ellipse cx="1072" cy="46.5" rx="32" ry="46.5" fill="#D9D9D9"/>
<ellipse cx="1112" cy="46.5" rx="32" ry="46.5" fill="#D9D9D9"/>
<ellipse cx="1152" cy="46.5" rx="32" ry="46.5" fill="#D9D9D9"/>
<ellipse cx="1192" cy="46.5" rx="32" ry="46.5" fill="#D9D9D9"/>
<ellipse cx="1232" cy="46.5" rx="32" ry="46.5" fill="#D9D9D9"/>
<ellipse cx="1272" cy="46.5" rx="32" ry="46.5" fill="#D9D9D9"/>
<ellipse cx="1312" cy="46.5" rx="32" ry="46.5" fill="#D9D9D9"/>
<ellipse cx="1352" cy="46.5" rx="32" ry="46.5" fill="#D9D9D9"/>
<ellipse cx="1392" cy="46.5" rx="32" ry="46.5" fill="#D9D9D9"/>
<ellipse cx="672" cy="46.5" rx="32" ry="46.5" fill="#D9D9D9"/>
<ellipse cx="712" cy="46.5" rx="32" ry="46.5" fill="#D9D9D9"/>
<ellipse cx="1432" cy="46.5" rx="32" ry="46.5" fill="#D9D9D9"/>
<rect x="1400" y="41" width="744" height="93" fill="#D9D9D9"/>
<ellipse cx="1472" cy="46.5" rx="32" ry="46.5" fill="#D9D9D9"/>
<ellipse cx="1512" cy="46.5" rx="32" ry="46.5" fill="#D9D9D9"/>
<ellipse cx="1552" cy="46.5" rx="32" ry="46.5" fill="#D9D9D9"/>
<ellipse cx="1592" cy="46.5" rx="32" ry="46.5" fill="#D9D9D9"/>
<ellipse cx="1632" cy="46.5" rx="32" ry="46.5" fill="#D9D9D9"/>
<ellipse cx="1672" cy="46.5" rx="32" ry="46.5" fill="#D9D9D9"/>
<ellipse cx="1712" cy="46.5" rx="32" ry="46.5" fill="#D9D9D9"/>
<ellipse cx="1752" cy="46.5" rx="32" ry="46.5" fill="#D9D9D9"/>
<ellipse cx="1792" cy="46.5" rx="32" ry="46.5" fill="#D9D9D9"/>
<ellipse cx="1832" cy="46.5" rx="32" ry="46.5" fill="#D9D9D9"/>
<ellipse cx="1872" cy="46.5" rx="32" ry="46.5" fill="#D9D9D9"/>
<ellipse cx="1912" cy="46.5" rx="32" ry="46.5" fill="#D9D9D9"/>
<ellipse cx="1952" cy="46.5" rx="32" ry="46.5" fill="#D9D9D9"/>
<ellipse cx="1992" cy="46.5" rx="32" ry="46.5" fill="#D9D9D9"/>
<ellipse cx="2032" cy="46.5" rx="32" ry="46.5" fill="#D9D9D9"/>
<rect x="1400" y="41" width="744" height="93" fill="#D9D9D9"/>
<ellipse cx="1472" cy="46.5" rx="32" ry="46.5" fill="#D9D9D9"/>
<ellipse cx="1512" cy="46.5" rx="32" ry="46.5" fill="#D9D9D9"/>
<ellipse cx="1552" cy="46.5" rx="32" ry="46.5" fill="#D9D9D9"/>
<ellipse cx="1592" cy="46.5" rx="32" ry="46.5" fill="#D9D9D9"/>
<ellipse cx="1632" cy="46.5" rx="32" ry="46.5" fill="#D9D9D9"/>
<ellipse cx="1672" cy="46.5" rx="32" ry="46.5" fill="#D9D9D9"/>
<ellipse cx="1712" cy="46.5" rx="32" ry="46.5" fill="#D9D9D9"/>
<ellipse cx="1752" cy="46.5" rx="32" ry="46.5" fill="#D9D9D9"/>
<ellipse cx="1792" cy="46.5" rx="32" ry="46.5" fill="#D9D9D9"/>
<ellipse cx="1832" cy="46.5" rx="32" ry="46.5" fill="#D9D9D9"/>
<ellipse cx="1872" cy="46.5" rx="32" ry="46.5" fill="#D9D9D9"/>
<ellipse cx="1912" cy="46.5" rx="32" ry="46.5" fill="#D9D9D9"/>
<ellipse cx="1952" cy="46.5" rx="32" ry="46.5" fill="#D9D9D9"/>
<ellipse cx="1992" cy="46.5" rx="32" ry="46.5" fill="#D9D9D9"/>
<ellipse cx="2032" cy="46.5" rx="32" ry="46.5" fill="#D9D9D9"/>
<rect x="2080" y="41" width="744" height="93" fill="#D9D9D9"/>
<ellipse cx="2152" cy="46.5" rx="32" ry="46.5" fill="#D9D9D9"/>
<ellipse cx="2192" cy="46.5" rx="32" ry="46.5" fill="#D9D9D9"/>
<ellipse cx="2232" cy="46.5" rx="32" ry="46.5" fill="#D9D9D9"/>
<ellipse cx="2272" cy="46.5" rx="32" ry="46.5" fill="#D9D9D9"/>
<ellipse cx="2312" cy="46.5" rx="32" ry="46.5" fill="#D9D9D9"/>
<ellipse cx="2352" cy="46.5" rx="32" ry="46.5" fill="#D9D9D9"/>
<ellipse cx="2392" cy="46.5" rx="32" ry="46.5" fill="#D9D9D9"/>
<ellipse cx="2432" cy="46.5" rx="32" ry="46.5" fill="#D9D9D9"/>
<ellipse cx="2472" cy="46.5" rx="32" ry="46.5" fill="#D9D9D9"/>
<ellipse cx="2512" cy="46.5" rx="32" ry="46.5" fill="#D9D9D9"/>
<ellipse cx="2552" cy="46.5" rx="32" ry="46.5" fill="#D9D9D9"/>
<ellipse cx="2592" cy="46.5" rx="32" ry="46.5" fill="#D9D9D9"/>
<ellipse cx="2632" cy="46.5" rx="32" ry="46.5" fill="#D9D9D9"/>
<ellipse cx="2672" cy="46.5" rx="32" ry="46.5" fill="#D9D9D9"/>
<ellipse cx="2712" cy="46.5" rx="32" ry="46.5" fill="#D9D9D9"/>
<ellipse cx="2752" cy="46.5" rx="32" ry="46.5" fill="#D9D9D9"/>
<ellipse cx="2792" cy="46.5" rx="32" ry="46.5" fill="#D9D9D9"/>
<ellipse cx="2072" cy="46.5" rx="32" ry="46.5" fill="#D9D9D9"/>
<ellipse cx="2112" cy="46.5" rx="32" ry="46.5" fill="#D9D9D9"/>
</svg>
